# xmcd CD database file
#
# Track frame offsets:
#	150
#	35443
#	55260
#	87148
#	104393
#	119600
#	148051
#	159226
#	179408
#	197690
#
# Disc length: 3205 seconds
#
# Revision: 0
# Processed by: cddbd v1.5.2PL0 Copyright (c) Steve Scherf et al.
# Submitted via: CDex 1.70beta2
#
DISCID=860c830a
DTITLE=Jazz Members - Sound in Smoke
DYEAR=1900
DGENRE=Jazz
TTITLE0=Speak Like A Child
TTITLE1=Cleopatra's Dream
TTITLE2=Candy
TTITLE3=Memories Of You
TTITLE4=Django
TTITLE5=Whisper Not
TTITLE6=Take Five
TTITLE7=Bewitched
TTITLE8=It Never Entered My Mind
TTITLE9=Deep Night
EXTD=
EXTT0=
EXTT1=
EXTT2=
EXTT3=
EXTT4=
EXTT5=
EXTT6=
EXTT7=
EXTT8=
EXTT9=
PLAYORDER=
